<svg id="Layer_1" data-name="Layer 1" xmlns="http://www.w3.org/2000/svg" viewBox="0 0 4231.26 2825.48"><defs><style>.cls-1{fill:#c5c9aa;}.cls-2{fill:#dee8be;}.cls-3{fill:#9fbecb;}.cls-4{fill:#e6f5f7;}.cls-5{fill:#dcc6a4;}.cls-6{fill:#f9f4a6;}.cls-7{fill:#c3e8f1;}.cls-8{fill:#c5e8f2;}.cls-9{fill:#db627b;}.cls-10{fill:#ca7d87;}.cls-11{fill:#c15174;}.cls-12{fill:#a98589;}.cls-13{fill:#ef3924;}.cls-14{fill:#d6224a;}.cls-15{fill:#f26a3b;}.cls-16{fill:#f26b38;}.cls-17{fill:#ef472c;}.cls-18{fill:#f7924b;}.cls-19{fill:#f89e57;}.cls-20{fill:#fbb681;}.cls-21{fill:#f79c88;}.cls-22{fill:#f9ae93;}.cls-23{fill:#e79491;}.cls-24{fill:#a35d82;}.cls-25{fill:#e7cca9;}.cls-26{fill:#ac7a8f;}.cls-27{fill:#9a7a8c;}.cls-28{fill:#ffca6b;}.cls-29{fill:#ffc96a;}.cls-30{fill:#ffde91;}.cls-31{fill:#f9f8d2;}.cls-32{fill:#c5c3b0;}.cls-33{fill:#abc0bb;}.cls-34{fill:#d1dfc0;}.cls-35{fill:#f47f5a;}.cls-36{fill:#b4d7cc;}.cls-37{fill:#eff4d2;}.cls-38{fill:#22356a;}.cls-39{fill:#458ecc;}.cls-40{fill:#357cc0;}.cls-41{fill:#367ec1;}.cls-42{fill:#5aa8dd;}.cls-43{fill:#a03a66;}.cls-44{fill:#f4f9f5;}.cls-45{fill:#a2c1b2;}.cls-46{fill:#99c6e2;}.cls-47{fill:#a8a292;}.cls-48{fill:#a07881;}.cls-49{fill:#90938f;}.cls-50{fill:#93b2b8;}.cls-51{fill:#83aed7;}.cls-52{fill:#74bae0;}.cls-53{fill:#97c3e2;}.cls-54{fill:#79a2d6;}.cls-55{fill:#589acf;}.cls-56{fill:#aee1f4;}.cls-57{fill:#dfe8e9;}</style></defs><title>background</title><polyline class="cls-1" points="2637.14 549.7 3105.68 1497.7 3432.99 1002.49 3105.68 595.68"/><polyline class="cls-2" points="2729.3 633.74 3177.48 1481.27 2744.08 1538.09 2637.14 1255.03"/><polyline class="cls-3" points="3040.84 1432.94 3257.55 1310.53 3535.75 1962.08 2914.68 1986.08"/><polyline class="cls-4" points="1823.4 1768.05 2377.81 1716.85 2325.75 1911.84"/><polyline class="cls-5" points="2115.76 595.68 2790.09 632.03 2654.31 1134.14 2233.86 1079.39"/><polyline class="cls-6" points="2050.52 1207.78 2168.89 595.68 1068.47 646.4"/><polyline class="cls-7" points="1841.99 1754.81 2582.83 1817.13 2625.74 2139.85 2211.12 2259.68"/><polyline class="cls-8" points="2396.85 1817.13 3341.82 1957.85 3321.06 2442.46"/><polyline class="cls-7" points="2798.2 2678.76 2512.32 2052.9 2503.29 2032.29 2069.96 2459.26"/><polygon class="cls-9" points="2184.83 0 1630.5 511.7 2781.95 0 2184.83 0"/><polygon class="cls-10" points="2664.48 0 1691.68 456.37 3351.24 880.68 3364.76 836.46 2870.92 0 2664.48 0"/><polygon class="cls-11" points="2853.94 0 3307.62 808.35 3723.66 554.29 3511.96 0 2853.94 0"/><polyline class="cls-12" points="3304.93 813.45 3732.03 533.7 3811.24 1322.27"/><polygon class="cls-13" points="4.95 33.67 487.45 746.43 4.95 693.24 4.95 33.67"/><polygon class="cls-14" points="0 46.52 486.92 754.7 266.91 1.92 210.49 0 0 0 0 46.52"/><polyline class="cls-15" points="1124.98 693.27 1370.62 2.7 668.94 2.7"/><polygon class="cls-16" points="4.95 1294.39 478.07 746.43 4.95 693.27 4.95 1294.39"/><polygon class="cls-17" points="266 0 478.07 736.43 1124.98 683.27 673.76 0 266 0"/><path class="cls-18" d="M1127.72,668.48l-20.45,850.67-645-786.31,12.16,14.83,7.59-11.6,5.19-9.94" transform="translate(0.26 2.7)"/><polygon class="cls-19" points="478.07 746.43 1107.53 1521.85 4.95 1294.39 478.07 746.43"/><polygon class="cls-20" points="4.95 1294.39 937.5 2139.85 1107.53 1521.85 4.95 1294.39"/><polygon class="cls-21" points="4.95 1294.39 4.95 2207 462.51 2327.87 4.95 1294.39"/><polyline class="cls-22" points="937.5 2139.85 462.51 2327.87 4.95 1294.39"/><polyline class="cls-23" points="4.95 2207 4.95 2562.89 462.51 2327.87"/><path class="cls-23" d="M635.07,2573.62" transform="translate(0.26 2.7)"/><path class="cls-23" d="M795,2610.55" transform="translate(0.26 2.7)"/><path class="cls-22" d="M1188,2610.55" transform="translate(0.26 2.7)"/><polyline class="cls-24" points="4.95 2823.7 836.26 2823.7 420.61 2349.39 4.95 2562.89"/><polyline class="cls-25" points="865.34 2168.41 1650.93 1923.17 1085.54 1549.39"/><path class="cls-25" d="M1080,2703" transform="translate(0.26 2.7)"/><polygon class="cls-26" points="834.46 2825.48 1241.86 2497.7 439.64 2352.83 420.61 2349.39 809.75 2825.48 834.46 2825.48"/><polyline class="cls-27" points="816.8 2823.7 1768.26 2823.7 1226.4 2485.7"/><line class="cls-26" x1="1258.13" y1="2055.91" x2="1420.26" y2="2525.96"/><polygon class="cls-28" points="1124.98 683.27 2316.26 609.7 1250.59 340.14 1124.98 683.27"/><polyline class="cls-29" points="1124.98 693.27 1668.26 1329.7 1107.53 1497.7"/><polyline class="cls-30" points="1646.81 1924.17 1092.28 1555.18 1102.1 1519.26 1102.56 1499.93 1667.25 1326.39 1916.8 1249.71"/><polyline class="cls-31" points="2074.83 1198.68 1668.72 1323.77 1116.38 681.21"/><polyline class="cls-32" points="405.05 2348.66 1469.95 2536.47 1057.69 2093.4 469.97 2307.06"/><path class="cls-32" d="M1469.69,2533.77" transform="translate(0.26 2.7)"/><polyline class="cls-33" points="1749.29 2823.7 1949.1 2593.43 1239.16 2499.11"/><polyline class="cls-34" points="1469.95 2536.47 1068.47 2105 1080.26 2101.32 1916.8 1823.56"/><polyline class="cls-35" points="1370.62 2.7 2214.09 2.7 1707 455.59 1250.59 340.14"/><polygon class="cls-36" points="2185.34 2825.48 2102.11 2393.87 1746.78 2825.48 2185.34 2825.48"/><polyline class="cls-37" points="1469.95 2526.34 1959.87 1754.81 2307.91 2225.86 2102.37 2431.76 1929.22 2605.22"/><polygon class="cls-38" points="4230.55 2591.41 4230.55 2499.79 3888.26 2823.7 4231.26 2823.7 4231.26 2591.41 4230.55 2591.41"/><polygon class="cls-39" points="3264.26 2393.87 3888.26 2823.7 3888.26 2314.94 3264.26 2393.87"/><polygon class="cls-40" points="4230.55 2498.73 3888.26 2314.94 3888.26 2823.7 4230.55 2499.79 4230.55 2498.73"/><polyline class="cls-41" points="2940.26 2823.7 3248.26 2823.7 3264.26 2393.87 3888.26 2823.7"/><polyline class="cls-42" points="2625.74 2337.89 2848.26 2823.7 3248.26 2823.7 3264.26 2393.87"/><polygon class="cls-43" points="4229.77 467.36 4231.26 467.36 4231.26 2.7 3512.26 2.7 3704.26 533.7 4229.77 549.65 4229.77 467.36"/><polyline class="cls-44" points="1916.8 1823.56 2307.91 1294.39 2292.26 1096.52 1824.26 1283.7 1650.93 1911.84"/><polyline class="cls-45" points="3271.62 1849.82 3587.31 1849.82 3789.68 1265.82 3105.68 1350.26"/><path class="cls-42" d="M3292.5,2120" transform="translate(0.26 2.7)"/><polyline class="cls-46" points="3272.68 2399.56 3593.3 1841.77 3272.68 1841.77"/><polyline class="cls-47" points="3303.26 808.35 3781.68 1275.25 3105.68 1350.42"/><path class="cls-46" d="M3584.77,1839.07" transform="translate(0.26 2.7)"/><polygon class="cls-48" points="4229.77 549.65 3704.26 533.7 3781.68 1275.25 4229.77 552.11 4229.77 549.65"/><polygon class="cls-49" points="4229.77 548.73 3778.68 1281.55 4229.77 1302.95 4229.77 548.73"/><polygon class="cls-50" points="4230.55 1444.81 4229.77 1444.81 4229.77 1300.05 3782.58 1273.86 3585.03 1841.77 4230.55 1579.64 4230.55 1444.81"/><polygon class="cls-51" points="4230.55 1577.72 3585.03 1842.51 3884.06 2316.94 4230.55 2100.11 4230.55 1577.72"/><polyline class="cls-52" points="3592 1841.97 3889.09 2318.61 3272.37 2399.56"/><line class="cls-42" x1="2798.85" y1="2789.87" x2="2572.27" y2="2300.41"/><polygon class="cls-53" points="2401.17 2825.48 2751.87 2613.25 2102.37 2431.76 2185.22 2825.48 2401.17 2825.48"/><polyline class="cls-54" points="2383.12 2823.7 2856.87 2823.7 2757.02 2611.08"/><polygon class="cls-55" points="4230.55 2094.91 3880.75 2313.71 4230.55 2519.02 4230.55 2094.91"/><polyline class="cls-4" points="3002.34 1907.3 2998.2 1902.25 2685.56 1521.85 1959.87 1752.1"/><polyline class="cls-56" points="2396.85 1817.13 2636.03 2337.89 3253.67 2393.87"/><line class="cls-56" x1="3287.09" y1="2415.74" x2="3300.08" y2="1911.84"/><path class="cls-6" d="M1959.61,1247" transform="translate(0.26 2.7)"/><polyline class="cls-2" points="1990.22 1217.32 2301.19 1095.48 2168.89 595.68"/><polyline class="cls-57" points="2763.78 1499.4 2684.64 1524.66 2680.8 1525.89 2661.26 1532.13 1972.04 1752.17 2307.58 1272.6 2646.24 1217.32"/><path class="cls-2" d="M2270.83,1057.34" transform="translate(0.26 2.7)"/><line class="cls-57" x1="2645.9" y1="1223" x2="2683.05" y2="1511.98"/><polyline class="cls-4" points="2686.34 1522.33 3117.77 1390.98 3002.34 1905.64"/></svg>